ModelForces
version=1
nRows=4
nColumns=157
inDegrees=no

This file contains the forces exerted on a model during a simulation.

A force is a generalized force, meaning that it can be either a force (N) or a torque (Nm).

Units are S.I. units (second, meters, Newtons, ...)
Angles are in degrees.

endheader
time	glut_med1_r	glut_med2_r	glut_med3_r	glut_min1_r	glut_min2_r	glut_min3_r	semimem_r	semiten_r	bifemlh_r	bifemsh_r	sar_r	add_long_r	add_brev_r	add_mag1_r	add_mag2_r	add_mag3_r	tfl_r	pect_r	grac_r	glut_max1_r	glut_max2_r	glut_max3_r	iliacus_r	psoas_r	quad_fem_r	gem_r	peri_r	rect_fem_r	vas_med_r	vas_int_r	vas_lat_r	med_gas_r	lat_gas_r	soleus_r	tib_post_r	flex_dig_r	flex_hal_r	tib_ant_r	per_brev_r	per_long_r	per_tert_r	ext_dig_r	ext_hal_r	glut_med1_l	glut_med2_l	glut_med3_l	glut_min1_l	glut_min2_l	glut_min3_l	semimem_l	semiten_l	bifemlh_l	bifemsh_l	sar_l	add_long_l	add_brev_l	add_mag1_l	add_mag2_l	add_mag3_l	tfl_l	pect_l	grac_l	glut_max1_l	glut_max2_l	glut_max3_l	iliacus_l	psoas_l	quad_fem_l	gem_l	peri_l	rect_fem_l	vas_med_l	vas_int_l	vas_lat_l	med_gas_l	lat_gas_l	soleus_l	tib_post_l	flex_dig_l	flex_hal_l	tib_ant_l	per_brev_l	per_long_l	per_tert_l	ext_dig_l	ext_hal_l	ercspn_r	ercspn_l	intobl_r	intobl_l	extobl_r	extobl_l	femur_lat_meniscii_r.femur_lat_r.force.X	femur_lat_meniscii_r.femur_lat_r.force.Y	femur_lat_meniscii_r.femur_lat_r.force.Z	femur_lat_meniscii_r.femur_lat_r.torque.X	femur_lat_meniscii_r.femur_lat_r.torque.Y	femur_lat_meniscii_r.femur_lat_r.torque.Z	femur_lat_meniscii_r.meniscus_lat_r.force.X	femur_lat_meniscii_r.meniscus_lat_r.force.Y	femur_lat_meniscii_r.meniscus_lat_r.force.Z	femur_lat_meniscii_r.meniscus_lat_r.torque.X	femur_lat_meniscii_r.meniscus_lat_r.torque.Y	femur_lat_meniscii_r.meniscus_lat_r.torque.Z	femur_med_meniscii_r.femur_med_r.force.X	femur_med_meniscii_r.femur_med_r.force.Y	femur_med_meniscii_r.femur_med_r.force.Z	femur_med_meniscii_r.femur_med_r.torque.X	femur_med_meniscii_r.femur_med_r.torque.Y	femur_med_meniscii_r.femur_med_r.torque.Z	femur_med_meniscii_r.meniscus_med_r.force.X	femur_med_meniscii_r.meniscus_med_r.force.Y	femur_med_meniscii_r.meniscus_med_r.force.Z	femur_med_meniscii_r.meniscus_med_r.torque.X	femur_med_meniscii_r.meniscus_med_r.torque.Y	femur_med_meniscii_r.meniscus_med_r.torque.Z	femur_med_tibia_r.tibia_upper_r.force.X	femur_med_tibia_r.tibia_upper_r.force.Y	femur_med_tibia_r.tibia_upper_r.force.Z	femur_med_tibia_r.tibia_upper_r.torque.X	femur_med_tibia_r.tibia_upper_r.torque.Y	femur_med_tibia_r.tibia_upper_r.torque.Z	femur_med_tibia_r.femur_med_r.force.X	femur_med_tibia_r.femur_med_r.force.Y	femur_med_tibia_r.femur_med_r.force.Z	femur_med_tibia_r.femur_med_r.torque.X	femur_med_tibia_r.femur_med_r.torque.Y	femur_med_tibia_r.femur_med_r.torque.Z	femur_lat_tibia_r.tibia_upper_r.force.X	femur_lat_tibia_r.tibia_upper_r.force.Y	femur_lat_tibia_r.tibia_upper_r.force.Z	femur_lat_tibia_r.tibia_upper_r.torque.X	femur_lat_tibia_r.tibia_upper_r.torque.Y	femur_lat_tibia_r.tibia_upper_r.torque.Z	femur_lat_tibia_r.femur_lat_r.force.X	femur_lat_tibia_r.femur_lat_r.force.Y	femur_lat_tibia_r.femur_lat_r.force.Z	femur_lat_tibia_r.femur_lat_r.torque.X	femur_lat_tibia_r.femur_lat_r.torque.Y	femur_lat_tibia_r.femur_lat_r.torque.Z	aACL_R	pACL_R	aPCL_R	pPCL_R	aMCL_R	mMCL_R	pMCL_R	aLCL_R	mLCL_R	pLCL_R	ground_prescribedForce_fx	ground_prescribedForce_fy	ground_prescribedForce_fz	ground_prescribedForce_px	ground_prescribedForce_py	ground_prescribedForce_pz
      0.00000000	     37.48087652	     28.28714471	     30.25598133	     13.28977762	     14.47626353	     15.91713841	     32.59884671	     20.14883361	     33.57013683	     34.76015022	      7.57027083	     27.93927808	     20.68957741	     14.51222487	     12.16230296	     19.66717628	     12.11993944	     11.16605282	      7.69155472	     18.12681708	     27.55933735	     20.56469162	     63.94906620	     55.74758807	     18.09791099	      9.16719286	     20.03897647	     55.77356399	     40.53736492	     41.78775184	     52.95809815	     58.17532718	     27.85185913	    152.72720615	     92.44658902	     14.93332009	     15.26895791	     41.82851940	     21.62523106	     46.40594865	      8.86060096	     25.04818486	      7.96045570	     37.48087652	     28.28714471	     30.25598133	     13.28977762	     14.47626353	     15.91713841	     42.06683902	     20.39635155	     37.67631238	     36.01822118	      7.59254209	     27.93927808	     20.68957741	     14.51222487	     12.16230296	     19.66717628	     12.58139899	     11.16605282	      7.78214370	     18.12681708	     27.55933735	     20.56469162	     63.94906620	     55.74758807	     18.09791099	      9.16719286	     20.03897647	     52.59637061	     32.48786114	     37.22481259	     39.87514307	     67.71424671	     31.64857027	    152.72720615	     92.44658902	     14.93332009	     15.26895791	     41.82851940	     21.62523106	     46.40594865	      8.86060096	     25.04818486	      7.96045570	    124.99446086	    124.99446086	     44.97041513	     44.97041513	     60.98287244	     60.98287244	     61.67396216	     97.15986064	     14.14444595	     -8.26732228	      1.52571655	     25.56658911	    -61.67396216	    -97.15986064	    -14.14444595	      3.21658858	     -1.82397177	     -1.49514820	      0.00000000	      0.00000000	      0.00000000	      0.00000000	      0.00000000	      0.00000000	      0.00000000	      0.00000000	      0.00000000	      0.00000000	      0.00000000	      0.00000000	      0.00000000	      0.00000000	      0.00000000	      0.00000000	      0.00000000	      0.00000000	      0.00000000	      0.00000000	      0.00000000	      0.00000000	      0.00000000	      0.00000000	      0.00000000	      0.00000000	      0.00000000	      0.00000000	      0.00000000	      0.00000000	      0.00000000	      0.00000000	      0.00000000	      0.00000000	      0.00000000	      0.00000000	     34.64446985	     23.66480373	      0.19485120	     75.99576998	      0.22366969	      8.10997858	      6.83469985	      0.00000000	      0.00000000	      0.00000000	    106.25000000	    -28.47000000	      0.00000000	      0.03000000	     -0.03000000	      0.00000000
      0.00100000	     37.47068608	     28.27022932	     30.24086714	     13.26950867	     14.46480712	     15.91260065	     31.80802536	     19.60522509	     32.85227099	     32.24132821	      7.12114277	     27.92554748	     20.64313666	     14.50364319	     12.15716021	     19.66293667	     11.92829974	     11.15324218	      7.29485942	     18.11779344	     27.54583488	     20.55620729	     63.92578024	     55.73415570	     18.08271668	      9.16509816	     20.03713766	     54.52991871	     38.13104254	     39.40799580	     50.38431216	     56.07806552	     26.85930554	    149.02349419	     92.19418178	     14.98420669	     15.28224798	     42.97180003	     21.41449050	     46.12511398	      9.11758221	     25.25681709	      8.04625188	     37.47068608	     28.27022932	     30.24086714	     13.26950867	     14.46480712	     15.91260065	     42.06228881	     20.39020965	     37.67123261	     35.98888344	      7.57882260	     27.92554748	     20.64313666	     14.50364319	     12.15716021	     19.66293667	     12.58033419	     11.15324218	      7.77413879	     18.11779344	     27.54583488	     20.55620729	     63.92578024	     55.73415570	     18.08271668	      9.16509816	     20.03713766	     52.58867645	     32.47668845	     37.21372981	     39.86386325	     67.70976811	     31.64643975	    152.71327822	     92.44307771	     14.93402208	     15.26942871	     41.82127614	     21.62263156	     46.40335095	      8.85785788	     25.04326423	      7.95848292	    124.81723588	    124.81723588	     44.95337082	     44.95337082	     60.96445217	     60.96445217	    128.50535240	    198.74072602	     27.92818154	    -16.48725817	      3.18675844	     53.28896776	   -128.50535240	   -198.74072602	    -27.92818154	      6.54070644	     -3.80102708	     -3.15089025	      0.00000000	      0.00000000	      0.00000000	      0.00000000	      0.00000000	      0.00000000	      0.00000000	      0.00000000	      0.00000000	      0.00000000	      0.00000000	      0.00000000	      0.00000000	      0.00000000	      0.00000000	      0.00000000	      0.00000000	      0.00000000	      0.00000000	      0.00000000	      0.00000000	      0.00000000	      0.00000000	      0.00000000	      0.00000000	      0.00000000	      0.00000000	      0.00000000	      0.00000000	      0.00000000	      0.00000000	      0.00000000	      0.00000000	      0.00000000	      0.00000000	      0.00000000	     11.83710553	     -0.39178440	    -15.48494183	     30.04288826	    -39.02367315	    -31.64729405	    -32.53818919	      0.00000000	      0.00000000	      0.00000000	    106.25000000	    -28.47000000	      0.00000000	      0.03000000	     -0.03000000	      0.00000000
      0.00197155	     37.44149915	     28.22308081	     30.19838991	     13.21732141	     14.43343566	     15.89961723	     30.30796396	     18.61229359	     31.55479847	     28.55854714	      6.53580365	     27.88693537	     20.53094331	     14.47971287	     12.14261596	     19.65073774	     11.57438665	     11.11916621	      6.69131132	     18.09243340	     27.50786217	     20.53219186	     63.86004223	     55.69560405	     18.04122249	      9.15909292	     20.03179194	     52.20744188	     33.77968538	     35.11392051	     45.61651367	     51.79287558	     24.84238628	    140.33334107	     91.61705308	     15.13463377	     15.33899530	     45.83670273	     20.88241447	     45.41638519	      9.73486826	     25.72605480	      8.24223048	     37.44149915	     28.22308081	     30.19838991	     13.21732141	     14.43343566	     15.89961723	     42.04908067	     20.37265927	     37.65651822	     35.90859230	      7.54436237	     27.88693537	     20.53094331	     14.47971287	     12.14261596	     19.65073774	     12.57723958	     11.11916621	      7.75262711	     18.09243340	     27.50786217	     20.53219186	     63.86004223	     55.69560405	     18.04122249	      9.15909292	     20.03179194	     52.56640903	     32.44488447	     37.18206006	     39.83159237	     67.69672079	     31.64023336	    152.67278527	     92.43283503	     14.93601053	     15.27074262	     41.80035980	     21.61509129	     46.39577578	      8.85003015	     25.02909272	      7.95281543	    124.35664938	    124.35664938	     44.90498178	     44.90498178	     60.91235892	     60.91235892	    137.13670674	    222.65929428	     34.53829679	    -19.83371615	      3.42535849	     56.80179102	   -137.13670674	   -222.65929428	    -34.53829679	      7.43833170	     -4.09608616	     -3.26105150	      0.00000000	      0.00000000	      0.00000000	      0.00000000	      0.00000000	      0.00000000	      0.00000000	      0.00000000	      0.00000000	      0.00000000	      0.00000000	      0.00000000	      0.00000000	      0.00000000	      0.00000000	      0.00000000	      0.00000000	      0.00000000	      0.00000000	      0.00000000	      0.00000000	      0.00000000	      0.00000000	      0.00000000	      0.00000000	      0.00000000	      0.00000000	      0.00000000	      0.00000000	      0.00000000	      0.00000000	      0.00000000	      0.00000000	      0.00000000	      0.00000000	      0.00000000	      1.22999340	    -11.93664208	      0.00000000	     16.83149856	    -48.34949831	    -41.53827214	    -42.29221206	      0.00000000	      0.00000000	      0.00000000	    106.25000000	    -28.47000000	      0.00000000	      0.03000000	     -0.03000000	      0.00000000
      0.00294310	     37.39370443	     28.14821113	     30.13031113	     13.14118708	     14.38458492	     15.87838164	     28.66993583	     17.58133519	     30.19482358	     25.63965042	      6.13584439	     27.82500853	     20.37721313	     14.44169246	     12.11913940	     19.63065537	     11.19130541	     11.06773578	      6.19426870	     18.05178663	     27.44695475	     20.49338959	     63.75414244	     55.63232486	     17.97680041	      9.14924820	     20.02288615	     49.70954055	     29.42896686	     30.79732799	     40.67925467	     46.66185685	     22.43447250	    128.59167496	     90.79503747	     15.37722926	     15.44479737	     50.08580679	     20.13962701	     44.40600693	     10.62287795	     26.35916120	      8.50718171	     37.39370443	     28.14821113	     30.13031113	     13.14118708	     14.38458492	     15.87838164	     42.02711480	     20.34399665	     37.63210683	     35.78364071	      7.49532794	     27.82500853	     20.37721313	     14.44169246	     12.11913940	     19.63065537	     12.57208590	     11.06773578	      7.71980545	     18.05178663	     27.44695475	     20.49338959	     63.75414244	     55.63232486	     17.97680041	      9.14924820	     20.02288615	     52.52950598	     32.39316548	     37.13033341	     39.77881133	     67.67493114	     31.62986920	    152.60532045	     92.41570320	     14.93921206	     15.27281612	     41.76578419	     21.60256215	     46.38311059	      8.83726574	     25.00575854	      7.94351131	    123.67824043	    123.67824043	     44.82653659	     44.82653659	     60.82826996	     60.82826996	    138.27942535	    229.15096534	     37.91783364	    -21.40543237	      3.46699401	     57.24805285	   -138.27942535	   -229.15096534	    -37.91783364	      7.73051731	     -4.14973461	     -3.25208667	      0.00000000	      0.00000000	      0.00000000	      0.00000000	      0.00000000	      0.00000000	      0.00000000	      0.00000000	      0.00000000	      0.00000000	      0.00000000	      0.00000000	      0.00000000	      0.00000000	      0.00000000	      0.00000000	      0.00000000	      0.00000000	      0.00000000	      0.00000000	      0.00000000	      0.00000000	      0.00000000	      0.00000000	      0.00000000	      0.00000000	      0.00000000	      0.00000000	      0.00000000	      0.00000000	      0.00000000	      0.00000000	      0.00000000	      0.00000000	      0.00000000	      0.00000000	     -3.73442913	    -17.51411369	      0.00000000	     12.28329242	    -48.34714436	    -42.05783905	    -42.73269430	      0.00000000	      0.00000000	      0.00000000	    106.25000000	    -28.47000000	      0.00000000	      0.03000000	     -0.03000000	      0.00000000
